<?xml version="1.0"?>
<svg xmlns="http://www.w3.org/2000/svg" viewBox="0 0 1811 534" width="1811" height="534" role="img" aria-label="Kentos AI">
  
  <rect width="1787" height="534" fill="#0A0A0A"></rect>
  <path d="M152.740 269.740L220.340 188.940L313.140 188.940L235.140 274.140L315.140 400.140L224.740 400.140L180.340 327.740L152.740 354.540L152.740 400.140L73.140 400.140L73.140 109.740L152.740 109.740L152.740 269.740ZM435.140 184.140Q493.140 184.140 523.740 211.340Q554.340 238.540 554.340 294.540L554.340 294.540L554.340 308.140L395.940 308.140Q395.940 330.940 406.140 342.540Q416.340 354.140 438.340 354.140L438.340 354.140Q458.340 354.140 467.740 345.740Q477.140 337.340 477.140 323.340L477.140 323.340L554.340 323.340Q554.340 361.740 525.140 383.340Q495.940 404.940 439.940 404.940L439.940 404.940Q381.140 404.940 348.740 377.540Q316.340 350.140 316.340 294.540L316.340 294.540Q316.340 240.140 347.940 212.140Q379.540 184.140 435.140 184.140L435.140 184.140ZM438.340 234.940Q400.740 234.940 396.340 270.540L396.340 270.540L473.940 270.540Q473.940 254.140 464.540 244.540Q455.140 234.940 438.340 234.940L438.340 234.940ZM724.340 184.140Q761.140 184.140 779.540 204.540Q797.940 224.940 797.940 263.340L797.940 263.340L797.940 400.140L718.340 400.140L718.340 272.940Q718.340 259.340 711.340 251.140Q704.340 242.940 691.540 242.940L691.540 242.940Q676.740 242.940 667.540 252.540Q658.340 262.140 658.340 276.140L658.340 276.140L658.340 400.140L578.740 400.140L578.740 188.940L643.940 188.940L649.140 220.940Q661.540 204.140 681.740 194.140Q701.940 184.140 724.340 184.140L724.340 184.140ZM927.540 188.940L972.340 188.940L972.340 242.940L927.540 242.940L927.540 323.340Q927.540 337.740 932.340 344.340Q937.140 350.940 949.940 350.940L949.940 350.940L972.340 350.940L972.340 397.740Q962.740 400.940 947.540 402.940Q932.340 404.940 921.140 404.940L921.140 404.940Q885.940 404.940 866.940 392.140Q847.940 379.340 847.940 348.540L847.940 348.540L847.940 242.940L818.340 242.940L818.340 188.940L851.140 188.940L868.340 124.940L927.540 124.940L927.540 188.940ZM1104.340 184.140Q1159.940 184.140 1191.740 212.340Q1223.540 240.540 1223.540 294.540L1223.540 294.540Q1223.540 348.540 1191.740 376.740Q1159.940 404.940 1104.340 404.940L1104.340 404.940Q1048.740 404.940 1017.140 376.940Q985.540 348.940 985.540 294.540L985.540 294.540Q985.540 240.140 1017.140 212.140Q1048.740 184.140 1104.340 184.140L1104.340 184.140ZM1104.340 238.140Q1065.140 238.140 1065.140 283.340L1065.140 283.340L1065.140 306.140Q1065.140 350.940 1104.340 350.940L1104.340 350.940Q1143.940 350.940 1143.940 306.140L1143.940 306.140L1143.940 283.340Q1143.940 238.140 1104.340 238.140L1104.340 238.140ZM1348.340 184.140Q1390.740 184.140 1420.140 200.740Q1449.540 217.340 1449.540 252.140L1449.540 252.140L1375.540 252.140Q1375.540 240.540 1365.140 235.740L1365.140 235.740Q1357.940 231.740 1347.140 231.740L1347.140 231.740Q1318.340 231.740 1318.340 245.340L1318.340 245.340Q1318.340 252.940 1328.340 256.140Q1338.340 259.340 1361.140 262.940L1361.140 262.940Q1389.140 266.940 1407.940 272.340Q1426.740 277.740 1440.740 291.540Q1454.740 305.340 1454.740 330.140L1454.740 330.140Q1454.740 370.540 1424.540 387.740Q1394.340 404.940 1345.540 404.940L1345.540 404.940Q1317.540 404.940 1292.740 397.140Q1267.940 389.340 1252.340 372.940Q1236.740 356.540 1236.740 331.340L1236.740 331.340L1310.740 331.340L1310.740 332.940Q1311.140 346.540 1322.140 351.940Q1333.140 357.340 1345.540 357.340L1345.540 357.340Q1378.740 357.340 1378.740 341.740L1378.740 341.740Q1378.740 333.740 1368.340 330.140Q1357.940 326.540 1334.340 322.540L1334.340 322.540Q1305.940 317.740 1287.740 312.140Q1269.540 306.540 1255.940 293.140Q1242.340 279.740 1242.340 255.740L1242.340 255.740Q1242.340 216.940 1271.740 200.540Q1301.140 184.140 1348.340 184.140L1348.340 184.140Z" fill="#FFFFFF"></path>
  <g transform="translate(24,0)"><rect x="1480.74" y="328.14" width="72.00" height="72.00" fill="#E63521"></rect>
  <path d="M1587.556 400.140L1574.628 400.140L1598.820 306.700L1615.588 306.700L1639.652 400.140L1626.724 400.140L1620.836 375.820L1593.444 375.820L1587.556 400.140ZM1602.788 337.292L1595.876 365.324L1618.276 365.324L1611.492 337.420Q1609.700 329.740 1608.548 324.364Q1607.396 318.988 1607.140 317.068L1607.140 317.068Q1606.884 318.988 1605.732 324.364Q1604.580 329.740 1602.788 337.292L1602.788 337.292ZM1717.092 400.140L1666.148 400.140L1666.148 388.620L1685.220 388.620L1685.220 318.220L1666.148 318.220L1666.148 306.700L1717.092 306.700L1717.092 318.220L1698.020 318.220L1698.020 388.620L1717.092 388.620L1717.092 400.140Z" fill="#B5B1AB"></path></g>
</svg>